<?xml version="1.0" standalone="no"?>
<!DOCTYPE svg PUBLIC "-//W3C//DTD SVG 20010904//EN"
 "http://www.w3.org/TR/2001/REC-SVG-20010904/DTD/svg10.dtd">
<svg version="1.0" xmlns="http://www.w3.org/2000/svg"
 width="1856.000000pt" height="1856.000000pt" viewBox="0 0 1856.000000 1856.000000"
 preserveAspectRatio="xMidYMid meet">
<metadata>
Created by potrace 1.14, written by Peter Selinger 2001-2017
</metadata>
<g transform="translate(0.000000,1856.000000) scale(0.100000,-0.100000)"
fill="#000000" stroke="none">
<path d="M7537 13440 c9 -14 34 -50 55 -80 21 -30 38 -60 38 -67 0 -6 3 -13 8
-15 12 -5 93 -178 123 -263 69 -197 90 -321 92 -545 2 -176 -4 -246 -33 -370
-26 -113 -25 -111 -33 -130 -3 -8 -10 -30 -16 -47 -10 -32 -9 -33 17 -34 48
-2 107 -7 107 -8 0 -1 34 -4 75 -6 74 -5 165 -12 248 -21 39 -4 61 -6 172 -18
25 -3 65 -7 90 -11 42 -5 58 -7 135 -20 17 -3 50 -7 75 -11 25 -3 55 -7 68
-10 77 -14 146 -26 176 -30 16 -2 45 -8 65 -13 20 -5 52 -12 71 -15 86 -14
415 -97 560 -142 124 -39 131 -41 143 -43 4 0 21 -8 37 -16 17 -9 30 -13 30
-11 0 3 25 -6 55 -20 31 -13 60 -24 65 -24 6 0 29 -8 53 -19 171 -75 314 -141
382 -176 141 -74 170 -90 180 -98 18 -14 180 -117 195 -124 8 -4 21 -12 27
-17 18 -16 49 -39 129 -98 151 -111 379 -330 494 -474 79 -99 123 -158 156
-209 21 -33 42 -62 45 -65 3 -3 14 -21 25 -40 10 -19 24 -38 29 -42 7 -5 7 -8
0 -8 -6 0 -6 -3 0 -8 19 -13 190 -332 179 -332 -2 0 2 -10 11 -23 8 -13 12
-27 8 -30 -3 -4 -1 -7 5 -7 7 0 12 -6 12 -14 0 -8 13 -45 29 -82 16 -38 38
-98 51 -134 12 -36 24 -72 27 -80 3 -8 7 -19 8 -25 2 -5 11 -37 21 -70 10 -33
19 -64 20 -70 1 -5 7 -30 14 -55 16 -60 41 -171 53 -235 2 -11 6 -27 9 -35 7
-18 30 -127 33 -156 2 -12 8 -31 14 -43 7 -11 10 -21 8 -21 -3 0 6 -37 20 -82
13 -46 26 -90 28 -98 6 -27 77 -245 84 -255 3 -5 6 -13 7 -17 1 -5 3 -10 4
-13 1 -3 3 -8 5 -12 1 -5 5 -17 10 -28 4 -11 19 -47 32 -80 13 -33 28 -69 33
-80 5 -11 22 -49 38 -85 46 -104 116 -245 125 -248 4 -2 7 -8 7 -13 0 -5 19
-42 41 -82 23 -40 47 -81 53 -92 6 -11 28 -46 49 -78 20 -31 37 -61 37 -66 0
-5 3 -11 8 -13 10 -5 64 -78 57 -78 -4 0 0 -7 7 -15 17 -18 23 -27 78 -100
221 -298 487 -569 795 -810 21 -16 43 -34 49 -40 6 -5 31 -23 56 -40 25 -16
47 -33 50 -36 3 -3 34 -25 70 -49 36 -24 67 -46 70 -49 3 -3 16 -13 30 -20 14
-8 81 -49 150 -90 69 -42 148 -87 175 -101 28 -14 52 -27 55 -30 11 -11 244
-123 385 -185 177 -78 461 -181 670 -244 129 -38 320 -90 359 -98 11 -2 47
-11 80 -19 34 -9 72 -18 86 -20 14 -3 57 -12 95 -20 39 -9 83 -18 98 -20 16
-2 32 -6 36 -8 4 -3 30 -8 57 -12 27 -3 58 -8 69 -10 11 -3 36 -7 55 -10 19
-3 38 -8 41 -9 6 -4 87 -16 134 -20 17 -2 30 -4 30 -5 0 -3 36 -9 90 -15 28
-3 59 -7 71 -9 19 -4 93 -13 174 -22 19 -2 53 -6 75 -9 42 -5 102 -12 195 -20
30 -3 75 -7 100 -9 303 -29 992 -58 1007 -42 10 10 7 1546 -3 1556 -5 5 -94
12 -199 15 -214 7 -263 10 -420 20 -60 4 -130 9 -155 10 -57 3 -185 15 -226
20 -29 4 -89 11 -179 20 -35 3 -99 11 -170 19 -11 2 -40 6 -65 10 -25 4 -61 9
-80 12 -86 12 -106 15 -127 19 -35 7 -87 17 -173 31 -29 5 -116 22 -145 29
-11 2 -51 11 -90 20 -38 9 -79 18 -89 20 -10 3 -55 14 -100 26 -45 11 -88 22
-96 24 -8 2 -15 4 -15 5 0 1 -7 3 -15 5 -46 11 -199 59 -225 70 -17 8 -42 16
-55 19 -34 7 -310 118 -390 157 -36 17 -66 31 -67 30 -9 -3 -327 180 -331 190
-2 5 -8 9 -14 9 -13 0 -138 85 -179 123 -10 9 -19 14 -19 10 0 -5 -4 -3 -8 3
-4 6 -34 33 -67 59 -184 148 -297 270 -503 540 -4 6 -19 28 -32 50 -13 22 -27
42 -30 45 -3 3 -11 16 -18 30 -14 29 -35 63 -43 70 -20 18 -165 337 -195 427
-8 27 -19 57 -24 68 -10 21 -68 217 -75 250 -2 11 -4 20 -5 20 -2 0 -8 28 -14
60 -2 11 -9 40 -14 65 -5 25 -19 88 -31 140 -11 52 -26 113 -31 135 -6 22 -13
49 -15 60 -6 27 -11 47 -17 65 -3 8 -20 67 -38 130 -18 63 -36 124 -40 135
-15 37 -23 60 -26 75 -3 16 -79 223 -94 255 -5 11 -21 49 -35 85 -50 121 -70
163 -139 299 -37 75 -77 154 -88 176 -12 22 -24 42 -28 45 -4 3 -10 15 -14 28
-4 12 -12 22 -17 22 -5 0 -9 6 -9 13 0 7 -29 56 -64 110 -35 53 -62 97 -60 97
3 0 -26 42 -74 105 -4 6 -25 35 -47 65 -22 30 -44 60 -50 66 -5 6 -17 21 -25
34 -8 12 -24 32 -35 45 -11 12 -36 42 -55 66 -19 23 -49 59 -67 78 -17 20 -41
47 -53 61 -82 97 -327 331 -455 435 -38 31 -81 67 -95 79 -47 40 -280 206
-290 206 -5 0 -10 4 -10 9 0 5 -9 13 -20 16 -11 3 -26 12 -32 19 -7 6 -65 43
-128 81 -63 37 -126 75 -139 83 -82 50 -432 226 -471 237 -10 3 -106 47 -132
61 -16 9 -28 12 -28 9 0 -3 -12 1 -27 9 -24 12 -54 25 -73 31 -3 1 -23 9 -45
18 -47 21 -465 164 -515 177 -19 5 -62 16 -95 25 -33 10 -64 18 -70 20 -5 1
-17 5 -25 8 -13 5 -62 17 -75 18 -2 0 -19 5 -37 10 -38 12 -65 19 -93 24 -11
2 -60 13 -110 25 -49 11 -99 22 -110 25 -11 2 -22 4 -25 5 -3 1 -9 3 -15 4
-22 4 -101 19 -120 23 -11 2 -31 6 -45 9 -14 2 -38 7 -55 11 -44 9 -51 11
-170 28 -22 3 -47 7 -55 10 -8 2 -37 7 -65 11 -27 4 -61 8 -75 10 -14 2 -43 6
-65 8 -22 3 -58 8 -80 11 -61 8 -116 15 -160 20 -22 2 -62 7 -90 10 -93 9
-150 15 -210 20 -33 2 -87 7 -120 10 -106 9 -207 15 -314 20 -57 2 -106 6
-108 9 -3 3 -14 1 -24 -5 -11 -5 -19 -6 -19 -1 0 4 -20 8 -45 8 l-44 -1 16
-25z"/>
<path d="M17394 13411 c-3 -3 -19 -6 -37 -7 -45 -2 -159 -17 -227 -29 -14 -2
-50 -7 -80 -11 -84 -10 -121 -15 -192 -30 -15 -3 -41 -7 -59 -9 -39 -5 -273
-51 -351 -70 -31 -7 -59 -10 -62 -7 -3 3 -6 0 -6 -7 0 -7 -4 -10 -9 -7 -5 3
-29 -1 -55 -8 -25 -8 -46 -12 -46 -10 0 2 -11 -1 -25 -6 -14 -5 -36 -12 -48
-14 -27 -5 -193 -50 -267 -72 -30 -9 -77 -22 -104 -30 -60 -17 -278 -91 -406
-137 -211 -77 -679 -287 -688 -309 -2 -5 -12 -8 -23 -8 -10 0 -19 -3 -19 -7 0
-5 -19 -17 -43 -28 -23 -11 -105 -57 -182 -102 -76 -46 -142 -83 -146 -83 -4
0 -9 -3 -11 -8 -1 -4 -28 -23 -58 -42 -30 -19 -57 -37 -60 -40 -3 -3 -32 -23
-65 -45 -98 -65 -243 -174 -277 -207 -10 -10 -22 -18 -27 -18 -5 0 -11 -3 -13
-7 -1 -5 -34 -35 -73 -68 -87 -74 -134 -116 -198 -178 l-50 -47 20 -23 c31
-33 203 -294 203 -306 0 -6 3 -11 8 -11 4 0 12 -10 18 -23 6 -12 35 -62 64
-112 29 -49 77 -137 107 -194 29 -57 57 -109 62 -115 5 -6 10 -14 10 -18 1 -5
17 -41 35 -80 73 -155 215 -505 238 -588 3 -10 15 0 36 29 82 113 257 301 392
421 85 76 239 200 249 200 3 0 20 12 36 26 27 24 81 60 175 119 19 12 49 30
65 41 17 10 50 29 74 42 24 13 58 32 75 42 48 28 233 120 241 120 5 0 16 7 26
16 9 8 26 16 38 17 11 1 21 5 21 9 0 4 8 8 18 8 9 0 26 7 36 15 10 8 23 12 27
9 5 -3 9 -1 9 4 0 6 12 13 28 17 15 3 41 12 57 20 29 13 63 25 68 24 1 0 29
12 62 26 33 15 62 27 65 26 12 -2 145 45 148 52 2 4 8 5 13 1 5 -3 10 1 11 8
2 20 4 32 10 48 9 24 30 102 34 128 3 13 15 51 28 85 13 34 24 64 24 67 1 9
14 45 23 65 4 11 18 45 30 75 42 111 124 265 246 465 7 11 18 30 24 43 7 12
16 22 21 22 4 0 8 4 8 10 0 8 67 100 140 194 85 108 303 336 322 336 4 0 8 6
8 13 0 7 12 20 28 30 15 9 44 31 64 49 61 55 119 102 137 112 9 5 18 12 21 16
3 3 26 21 53 40 26 18 47 35 47 36 0 5 -91 -1 -96 -5z"/>
<path d="M5860 13352 c-52 -6 -182 -33 -208 -43 -15 -6 -28 -10 -29 -10 -10 1
-132 -63 -179 -94 -83 -55 -193 -158 -218 -203 -5 -9 -12 -19 -15 -22 -7 -5
-56 -86 -84 -137 -10 -18 -15 -33 -10 -33 4 0 3 -4 -3 -8 -9 -6 -44 -102 -51
-142 -1 -8 -6 -36 -11 -61 -5 -26 -9 -72 -8 -103 1 -31 -3 -56 -7 -56 -5 0 -5
-6 -1 -12 5 -7 9 -35 10 -63 1 -54 7 -82 31 -158 8 -26 16 -53 17 -60 4 -24
58 -131 87 -173 16 -23 29 -45 29 -48 0 -5 24 -32 99 -109 72 -75 256 -197
297 -197 18 0 44 -34 35 -48 -7 -13 -5 -81 3 -89 3 -3 1 -16 -4 -29 -6 -14 -6
-24 0 -24 5 0 5 -12 0 -29 -4 -15 -4 -34 0 -42 5 -7 6 -17 3 -22 -3 -5 -5 -34
-4 -65 0 -32 1 -66 0 -77 0 -11 0 -26 0 -32 2 -23 1 -42 0 -98 -1 -31 1 -58 4
-61 3 -4 2 -17 -3 -30 -6 -14 -6 -24 0 -24 5 0 5 -12 0 -29 -4 -15 -4 -34 0
-42 5 -7 6 -17 3 -22 -3 -5 -5 -34 -4 -65 0 -32 1 -66 0 -77 0 -11 0 -26 0
-32 2 -23 1 -42 0 -98 -1 -31 1 -58 4 -61 3 -4 2 -17 -3 -30 -6 -14 -6 -24 0
-24 5 0 5 -12 0 -29 -4 -15 -4 -34 0 -42 5 -7 6 -17 3 -22 -6 -10 -6 -93 -1
-144 2 -17 0 -29 -4 -27 -5 3 -6 -7 -2 -22 4 -16 7 -33 6 -39 -7 -57 -7 -75
-1 -75 4 0 4 -13 -1 -28 -4 -16 -4 -35 1 -43 4 -8 4 -21 -1 -28 -4 -8 -4 -27
0 -42 5 -16 5 -29 1 -29 -5 0 -6 -15 -4 -32 5 -37 5 -40 0 -85 -2 -18 0 -33 4
-33 4 0 4 -13 -1 -29 -4 -15 -4 -34 0 -42 5 -7 5 -20 1 -28 -8 -17 -6 -79 3
-88 2 -3 1 -16 -4 -29 -6 -14 -6 -24 0 -24 5 0 5 -12 0 -29 -4 -15 -4 -34 0
-42 5 -7 6 -17 3 -22 -3 -5 -5 -34 -4 -65 0 -32 1 -66 0 -77 0 -11 0 -26 0
-32 2 -23 1 -42 0 -98 -1 -31 1 -58 4 -61 3 -4 2 -17 -3 -30 -6 -14 -6 -24 0
-24 5 0 5 -12 0 -29 -4 -15 -4 -34 0 -42 5 -7 6 -17 3 -22 -3 -5 -5 -34 -4
-65 0 -32 1 -66 0 -77 0 -11 0 -26 0 -32 2 -23 1 -42 0 -98 -1 -31 1 -58 4
-61 3 -4 2 -17 -3 -30 -6 -14 -6 -24 0 -24 5 0 5 -12 0 -29 -4 -15 -4 -34 0
-42 5 -7 6 -17 3 -22 -3 -5 -5 -34 -4 -65 0 -32 1 -66 0 -77 0 -11 0 -26 0
-32 2 -23 1 -42 0 -98 -1 -31 1 -58 4 -61 3 -4 2 -17 -3 -30 -6 -14 -6 -24 0
-24 5 0 5 -12 0 -29 -4 -15 -4 -34 0 -42 5 -7 6 -17 3 -22 -3 -5 -5 -34 -4
-65 0 -32 1 -66 0 -77 0 -11 0 -26 0 -32 2 -25 2 -38 2 -103 -1 -36 -1 -73 -1
-82 0 -10 0 -43 -1 -73 -1 -31 1 -58 4 -61 3 -4 2 -17 -3 -30 -6 -14 -6 -24 0
-24 5 0 5 -12 0 -29 -4 -15 -4 -34 0 -42 5 -7 6 -17 3 -22 -3 -5 -5 -34 -4
-65 0 -32 1 -66 0 -77 0 -11 0 -26 0 -32 2 -25 2 -38 2 -103 -1 -36 -1 -73 -1
-82 0 -10 0 -42 -1 -70 -1 -29 0 -58 2 -65 2 -6 -37 -32 -88 -57 -121 -61
-207 -126 -291 -219 -65 -74 -152 -225 -173 -305 -2 -4 -9 -27 -17 -52 -18
-58 -26 -111 -26 -182 -1 -32 -5 -58 -9 -58 -5 0 -5 -4 -2 -10 3 -5 8 -40 10
-76 3 -36 7 -69 9 -73 3 -4 8 -23 11 -42 10 -49 9 -47 32 -107 3 -9 7 -19 7
-22 4 -20 66 -135 98 -180 49 -69 150 -173 194 -201 19 -11 34 -24 34 -27 0
-4 18 -16 40 -26 22 -11 40 -23 40 -28 0 -4 3 -7 8 -6 7 1 47 -13 87 -32 211
-98 546 -81 756 38 20 11 47 26 60 34 13 7 26 15 29 18 3 3 28 23 55 45 49 39
91 79 130 126 35 43 75 97 75 104 0 3 12 24 27 48 14 23 26 48 26 54 0 7 5 13
10 13 6 0 8 3 4 6 -3 3 3 25 12 48 60 137 69 385 21 536 -6 19 -13 42 -15 50
-10 38 -32 89 -58 134 -15 27 -27 52 -27 56 0 5 -3 10 -7 12 -5 2 -20 21 -35
43 -32 47 -145 165 -158 165 -4 0 -10 4 -12 8 -7 18 -159 110 -188 115 -3 0
-18 9 -35 19 l-30 18 -1 2390 c0 1682 3 2390 10 2390 6 0 47 18 90 41 255 131
421 350 482 634 40 186 -1 448 -93 597 -13 21 -23 40 -23 43 0 12 -87 121
-133 167 -93 93 -242 185 -352 218 -70 20 -109 30 -145 36 -43 6 -186 11 -220
6z"/>
<path d="M3087 12224 c-1 -1 -24 -4 -52 -7 -51 -6 -136 -27 -190 -47 -46 -17
-120 -54 -123 -62 -2 -5 -9 -8 -16 -8 -7 0 -22 -9 -34 -20 -12 -12 -22 -18
-22 -14 0 4 -40 -35 -90 -85 -49 -50 -90 -96 -90 -101 0 -5 -6 -15 -13 -22
-16 -16 -88 -158 -80 -158 3 0 0 -7 -7 -15 -7 -8 -10 -15 -7 -15 3 0 0 -15 -8
-33 -25 -61 -38 -253 -23 -347 42 -260 199 -477 437 -602 l63 -33 0 -1439 0
-1440 -26 -19 c-14 -10 -26 -16 -26 -12 0 3 -13 -3 -29 -14 -16 -12 -34 -21
-40 -21 -6 0 -11 -4 -11 -10 0 -5 -6 -10 -12 -10 -13 0 -40 -22 -121 -96 -75
-68 -161 -204 -203 -319 -60 -166 -49 -413 24 -575 14 -30 25 -58 24 -62 -1
-5 3 -8 8 -8 6 0 10 -5 10 -11 0 -21 88 -134 147 -189 72 -67 103 -92 103 -83
0 3 10 -3 23 -14 28 -26 163 -89 212 -99 11 -2 31 -6 45 -9 129 -29 281 -23
405 16 68 20 175 66 185 78 3 4 18 15 35 25 45 30 53 36 129 112 67 68 156
198 156 229 0 7 4 16 9 20 26 15 70 241 65 328 -2 41 -13 134 -18 167 -1 3 -5
11 -9 18 -5 6 -6 16 -2 21 3 5 1 12 -5 16 -5 3 -10 13 -10 20 0 20 -48 120
-88 183 -51 81 -145 176 -230 232 -43 27 -80 50 -85 50 -4 -1 -20 6 -35 15
l-28 17 1 156 c0 87 4 162 8 169 4 6 4 14 0 16 -5 3 -8 576 -8 1273 l0 1268
80 44 c44 25 82 48 85 52 3 3 13 11 24 17 36 20 138 129 181 193 40 61 87 156
100 203 2 4 4 9 5 12 8 16 30 155 34 211 3 62 -12 206 -25 229 -3 6 -12 33
-19 60 -7 28 -18 57 -25 65 -6 8 -22 39 -35 68 -13 28 -28 52 -33 52 -6 0 -8
2 -5 5 9 10 -97 126 -173 190 -68 57 -235 134 -329 152 -54 10 -207 22 -213
17z"/>
<path d="M645 9932 c-111 -13 -250 -63 -316 -114 -20 -15 -40 -28 -43 -28 -10
0 -108 -100 -143 -145 -59 -78 -108 -185 -129 -286 -10 -42 -10 -234 -2 -274
7 -32 17 -73 22 -90 9 -31 57 -137 65 -145 4 -3 13 -18 20 -33 20 -38 147
-167 196 -199 194 -124 370 -150 615 -93 34 7 109 41 165 74 62 36 205 167
205 188 0 6 4 13 8 15 20 8 92 155 108 221 10 43 14 65 19 101 3 21 8 43 12
49 3 6 1 7 -5 3 -9 -5 -10 0 -4 16 27 80 -36 304 -121 427 -35 51 -136 161
-148 161 -4 0 -19 10 -33 23 -47 43 -193 105 -294 123 -33 6 -162 10 -197 6z"/>
<path d="M11520 7863 c0 -19 -272 -288 -360 -357 -47 -37 -94 -75 -105 -86
-12 -11 -24 -20 -28 -20 -6 0 -95 -58 -107 -70 -8 -8 -43 -29 -60 -37 -8 -3
-26 -14 -40 -23 -49 -34 -293 -161 -305 -160 -3 1 -18 -6 -33 -14 -34 -19
-123 -58 -137 -60 -5 -1 -15 -5 -21 -8 -10 -6 -82 -34 -114 -43 -8 -3 -60 -21
-115 -40 -96 -34 -164 -54 -262 -79 -10 -3 -33 -9 -50 -15 -18 -5 -33 -8 -33
-5 0 3 -8 0 -17 -5 -10 -5 -34 -12 -53 -15 -19 -4 -39 -8 -45 -10 -14 -4 -66
-15 -95 -20 -14 -3 -36 -7 -50 -10 -14 -3 -36 -8 -50 -11 -14 -3 -36 -8 -50
-11 -14 -3 -32 -6 -40 -6 -8 0 -33 -4 -55 -8 -42 -9 -113 -20 -155 -25 -14 -2
-38 -5 -55 -8 -16 -3 -61 -9 -100 -13 -38 -3 -78 -8 -87 -9 -9 -2 -48 -7 -85
-10 -37 -4 -71 -9 -75 -12 -5 -2 -8 2 -8 9 0 8 -3 9 -8 3 -4 -6 -18 -11 -32
-12 -14 -1 -61 -4 -105 -7 -110 -8 -263 -17 -370 -21 -49 -2 -92 -4 -95 -5 -3
-1 -9 -1 -15 0 -5 1 -30 2 -55 1 -25 0 -109 -1 -186 -2 l-142 -1 29 -74 c16
-41 31 -85 33 -97 3 -12 10 -38 15 -57 16 -50 42 -177 48 -235 7 -59 7 -354 0
-405 -4 -29 -18 -112 -22 -130 -1 -3 -4 -18 -8 -35 -4 -16 -9 -41 -12 -53 -15
-80 -104 -297 -165 -402 -50 -86 -81 -78 303 -74 188 2 389 6 447 8 142 7 396
24 475 32 22 2 67 6 100 9 33 3 77 8 98 10 52 7 103 13 166 20 30 4 61 8 70
10 9 1 41 6 71 9 30 4 80 12 110 18 30 6 71 12 90 14 19 1 46 5 60 9 45 11
124 26 156 31 25 3 232 49 317 70 9 2 25 6 35 8 9 2 37 9 62 16 25 7 52 14 60
15 8 2 15 4 15 5 0 1 11 3 24 6 14 2 43 11 65 18 34 12 106 33 139 42 4 1 9 3
12 4 3 1 8 3 13 4 55 14 291 99 407 147 17 7 32 13 35 14 3 1 22 9 44 18 21 9
40 17 42 17 11 0 269 126 439 215 183 96 423 240 488 295 10 8 28 23 39 33 12
9 24 17 27 17 4 0 28 20 55 44 26 25 71 64 98 88 74 63 98 86 98 93 0 4 10 15
22 24 l21 18 -39 49 c-21 28 -48 63 -59 78 -11 15 -30 40 -42 54 -13 15 -44
58 -70 97 -26 38 -50 72 -53 75 -3 3 -17 23 -30 45 -13 22 -26 42 -29 45 -7 6
-15 18 -68 108 -21 35 -44 73 -51 85 -7 12 -24 40 -37 62 -52 88 -237 468
-285 584 -50 124 -60 144 -60 124z"/>
</g>
</svg>
