<svg width="14" height="14" viewBox="0 0 14 14" fill="none" xmlns="http://www.w3.org/2000/svg">
<path d="M13.3002 0.710017C13.1134 0.522765 12.8597 0.417532 12.5952 0.417532C12.3307 0.417532 12.077 0.522765 11.8902 0.710017L7.00022 5.59002L2.11021 0.700017C1.92338 0.512765 1.66973 0.407532 1.40521 0.407532C1.1407 0.407532 0.887046 0.512765 0.700215 0.700017C0.310215 1.09002 0.310215 1.72002 0.700215 2.11002L5.59021 7.00002L0.700215 11.89C0.310215 12.28 0.310215 12.91 0.700215 13.3C1.09021 13.69 1.72021 13.69 2.11021 13.3L7.00022 8.41002L11.8902 13.3C12.2802 13.69 12.9102 13.69 13.3002 13.3C13.6902 12.91 13.6902 12.28 13.3002 11.89L8.41021 7.00002L13.3002 2.11002C13.6802 1.73002 13.6802 1.09002 13.3002 0.710017Z" fill="#829094"/>
</svg>
