<svg width="56" height="61" viewBox="0 0 56 61" fill="none" xmlns="http://www.w3.org/2000/svg">
<g id="Group 93">
<ellipse id="Ellipse 14" cx="28.3697" cy="11.3948" rx="10.4019" ry="10.6331" fill="#219DBA"/>
<g id="Exclude">
<path fill-rule="evenodd" clip-rule="evenodd" d="M16.3586 21.1055C22.8309 21.1055 27.5985 26.0367 28.1379 28.5024C32.0674 21.7989 36.916 21.3366 41.5448 21.3366C48.9589 21.3366 55.1829 25.9597 55.4141 38.2108C55.624 49.3385 45.7096 54.9196 42.978 56.4572C42.7022 56.6125 42.4996 56.7265 42.3881 56.8009C42.3728 56.8112 42.3575 56.8214 42.3421 56.8317L42.3026 56.8578C42.2885 56.867 42.2743 56.8763 42.2601 56.8855L42.2255 56.9078C41.6845 57.2581 40.9219 57.6981 40.0629 57.9681C38.5957 58.4293 36.8476 58.3945 35.444 56.5697C35.2625 56.3338 35.1252 56.1051 35.0273 55.8831C34.9926 55.691 34.9442 55.5065 34.8854 55.3334C34.8724 55.295 34.8588 55.2572 34.8448 55.2199C34.8675 55.4341 34.9266 55.6549 35.0273 55.8831C35.2743 57.2513 34.8283 59.0095 32.5364 59.8739C31.7328 60.1769 30.6177 60.2707 29.3755 60.3751L29.3728 60.3753L29.3462 60.3775C29.2523 60.3854 29.1578 60.3934 29.0626 60.4015C15.3571 61.5713 0.640137 55.085 0.640137 39.5977C0.640137 27.2079 7.41806 21.1055 16.3586 21.1055Z" fill="#219DBA"/>
<path d="M34.8448 55.2199C34.8675 55.4341 34.9266 55.6549 35.0273 55.8831C34.9926 55.691 34.9442 55.5065 34.8854 55.3334C34.8724 55.295 34.8588 55.2572 34.8448 55.2199Z" fill="#219DBA"/>
</g>
<circle id="Ellipse 15" cx="39.6958" cy="36.8213" r="6.9346" fill="#FCBE46"/>
<path id="Vector 5" fill-rule="evenodd" clip-rule="evenodd" d="M30.1013 53.2267C32.2064 53.2018 33.369 53.188 34.3792 54.3904C34.5562 54.601 34.7196 54.8862 34.8449 55.2186C34.6574 53.4543 36.9364 52.1517 38.7636 51.1073C39.248 50.8305 39.7007 50.5718 40.0672 50.3274C41.7315 49.2179 45.3975 46.6082 45.9369 45.8377C44.0106 45.8377 39.3721 45.6528 36.2285 44.9131C32.6776 44.0776 29.693 40.9772 28.4684 39.7051C28.3377 39.5694 28.2271 39.4545 28.138 39.3654C27.2134 38.4408 23.2839 35.8981 22.3592 39.3654C21.6195 42.1393 23.2839 45.7607 24.2085 47.2246C22.5442 47.9643 16.2722 48.3033 13.3442 48.3804C18.6608 51.6165 24.2085 53.2346 29.0627 53.2346C29.433 53.2346 29.7782 53.2305 30.1013 53.2267Z" fill="#FCBE46"/>
</g>
</svg>
