<svg width="20" height="20" viewBox="0 0 20 20" fill="none" xmlns="http://www.w3.org/2000/svg">
<path d="M4.34017 10.8342H13.6485L9.58184 14.9009C9.25684 15.2259 9.25684 15.7592 9.58184 16.0842C9.90684 16.4092 10.4318 16.4092 10.7568 16.0842L16.2485 10.5926C16.5735 10.2676 16.5735 9.74257 16.2485 9.41757L10.7652 3.91757C10.6095 3.76152 10.3981 3.67383 10.1777 3.67383C9.95724 3.67383 9.74586 3.76152 9.59017 3.91757C9.26517 4.24257 9.26517 4.76757 9.59017 5.09257L13.6485 9.16757H4.34017C3.88184 9.16757 3.50684 9.54257 3.50684 10.0009C3.50684 10.4592 3.88184 10.8342 4.34017 10.8342Z" fill="#087D98"/>
</svg>
