<svg width="24" height="24" viewBox="0 0 24 24" fill="none" xmlns="http://www.w3.org/2000/svg">
<path fill-rule="evenodd" clip-rule="evenodd" d="M7 3H17C18.1 3 19 3.9 19 5V19C19 20.1 18.1 21 17 21H7C5.9 21 5 20.1 5 19V16C5 15.45 5.45 15 6 15C6.55 15 7 15.45 7 16V18C7 18.55 7.45 19 8 19H16C16.55 19 17 18.55 17 18V6C17 5.45 16.55 5 16 5H8C7.45 5 7 5.45 7 6V8C7 8.55 6.55 9 6 9C5.45 9 5 8.55 5 8V5C5 3.9 5.89 3 7 3ZM14.79 12.7L11.2 16.29C10.81 16.68 10.18 16.68 9.79 16.29C9.41 15.91 9.4 15.27 9.79 14.88L11.67 13H3C2.45 13 2 12.55 2 12C2 11.45 2.45 11 3 11H11.67L9.79 9.11C9.4 8.72 9.4 8.09 9.79 7.7C9.97683 7.51275 10.2305 7.40751 10.495 7.40751C10.7595 7.40751 11.0132 7.51275 11.2 7.7L14.79 11.29C15.18 11.68 15.18 12.31 14.79 12.7Z" fill="#273135"/>
</svg>
