<?xml version="1.0" encoding="utf-8"?>
<!-- Generator: Adobe Illustrator 27.7.0, SVG Export Plug-In . SVG Version: 6.00 Build 0)  -->
<svg version="1.1" id="Layer_1" xmlns="http://www.w3.org/2000/svg" xmlns:xlink="http://www.w3.org/1999/xlink" x="0px" y="0px"
	 width="20px" height="20px" viewBox="0 0 20 20" style="enable-background:new 0 0 20 20;" xml:space="preserve">
<style type="text/css">
	.st0{fill:#FFFFFF;}
</style>
<path class="st0" d="M8,17.4v-5h4v5c0,0.5,0.4,1,1,1h3c0.6,0,1-0.5,1-1v-7h1.7c0.5,0,0.7-0.6,0.3-0.9L10.7,2c-0.4-0.3-1-0.3-1.3,0
	L1,9.5c-0.3,0.3-0.1,0.9,0.3,0.9H3v7c0,0.5,0.4,1,1,1h3C7.5,18.4,8,17.9,8,17.4z"/>
</svg>
