<?xml version="1.0" encoding="utf-8"?>
<!-- Generator: Adobe Illustrator 27.7.0, SVG Export Plug-In . SVG Version: 6.00 Build 0)  -->
<svg version="1.1" id="Layer_1" xmlns="http://www.w3.org/2000/svg" xmlns:xlink="http://www.w3.org/1999/xlink" x="0px" y="0px"
	 width="64px" height="64px" viewBox="0 0 64 64" style="enable-background:new 0 0 64 64;" xml:space="preserve">
<style type="text/css">
	.st0{fill:#229DBA;}
	.st1{fill:#FBBD45;}
</style>
<path class="st0" d="M47.3,11.8c0,5.5-4.4,9.9-9.9,9.9s-9.9-4.4-9.9-9.9c0-5.5,4.4-9.9,9.9-9.9S47.3,6.3,47.3,11.8z"/>
<path class="st0" d="M42.1,24c-2.8,0.8-5.4,3-5.8,4.7c-2.7-4.5-9.7-10.4-17.1-4.7c-9.3,7-10.5,15.7-8,22.5c2.1,5.8,7.3,7.3,12.8,8.8
	c1.7,0.6,4,0.3,5.6,0.6c1,0,1.9-0.2,2.7-0.3c0.8-0.1,2.2-0.6,3.7-1.2c2.9-1.2,5.7-2.8,8.3-4.6c3-2.3,5-4.5,6.8-7.8
	c1.7-3,5.3-11.2,1.7-15.3C49.7,23.4,46.1,22.7,42.1,24z"/>
<path class="st1" d="M35.9,54.3c-1.6,0.7-2.9,1.1-3.7,1.2c-0.8,0.1-1.7,0.3-2.7,0.3c0.5,0.8,1.7,2.7,2.7,3.8
	c1.2,1.4,2.7,2.5,4.7,1.2c2.1-1.2,1.2-3.1,0.8-3.7c-0.1-0.1-0.2-0.4-0.4-0.6C36.9,55.9,36.3,54.8,35.9,54.3z"/>
<path class="st1" d="M23.5,55.1c0,0-3.3-0.6-3.1-3.9c0.2-3.3,9.6-2.9,9.6-2.9s-4.4-0.2-5.2-1c-1-1-0.9-2.4-0.4-4.5
	c0.4,0.5,1.5,1.2,2.3,1.6c0.8,0.4,2.5,1,4.5,1.4c2.1,0.4,2.7-0.2,2.9-1c0.2-0.8-1.3-2.1-2.5-2.5c-1.2-0.4-3.5-1.9-4.1-2.7
	c-0.6-0.8-1.2-2.3-1.7-3.1c-0.4-0.8-1-1.3-1.8-1.9c-0.8-0.6-1.7-0.9-2.6-1.2c-1.8-0.5-4.9,1.1-6.5,3.5c-1.3,1.9-1.3,5.6-1.9,7
	c1.7-0.5,2.4-0.7,3.4,0.5c1.7,1.9,1.7,4,1.2,5.2c-0.5,1.2-2.9,1.7-2.9,1.7s1.2,1,3.7,2.1C20.9,54.5,23.5,55.1,23.5,55.1z"/>
<circle class="st1" cx="25.1" cy="28.7" r="5.4"/>
</svg>
