<svg width="142" height="40" viewBox="0 0 179 40" fill="none" xmlns="http://www.w3.org/2000/svg">
<g id="logo-SeqFirst" clip-path="url(#clip0_190_23128)">
<path id="Vector" d="M32.6431 28.5989C31.749 27.5028 31.0399 26.2752 30.5252 24.9237C29.0003 26.7746 26.1505 28.1738 20.6091 28.13C20.8398 28.6656 20.9675 29.2508 20.9675 29.857C20.9675 30.7205 20.714 31.523 20.2812 32.2016C20.4833 32.2054 20.6854 32.2074 20.8836 32.2074C24.6808 32.2074 27.7117 31.6012 30.1021 30.3698C31.2229 29.7922 31.8138 29.4472 32.645 28.5989" fill="white"/>
<path id="Vector_2" d="M43.0098 14.3557C43.0936 14.1079 43.1909 13.8658 43.3071 13.6333C43.3739 13.4979 43.4482 13.3683 43.5225 13.2406C44.0487 12.3027 44.7406 11.4926 45.6041 10.8121C45.7566 10.692 45.9148 10.5776 46.075 10.467C41.6316 10.9074 38.0784 12.3904 35.6289 14.7827C36.4676 15.9322 37.1348 17.2227 37.6266 18.6485C38.5378 17.4171 39.813 16.4545 41.4676 15.7415C41.8832 15.5624 42.3083 15.4099 42.7353 15.2745C42.8077 14.96 42.8973 14.655 43.006 14.3576L43.0098 14.3557Z" fill="white"/>
<path id="Vector_3" d="M36.209 21.4411C36.209 21.4411 36.2166 21.4296 36.2223 21.422L36.209 21.4411Z" fill="white"/>
<path id="Vector_4" d="M2.37762 23.2977C3.4146 23.2977 4.25524 22.4571 4.25524 21.4201C4.25524 20.3831 3.4146 19.5425 2.37762 19.5425C1.34064 19.5425 0.5 20.3831 0.5 21.4201C0.5 22.4571 1.34064 23.2977 2.37762 23.2977Z" fill="white"/>
<path id="Vector_5" d="M9.44627 25.1849V17.6572C10.224 17.3465 10.773 16.586 10.773 15.6977C10.773 14.5311 9.82752 13.5856 8.66091 13.5856C7.49431 13.5856 6.54883 14.5311 6.54883 15.6977C6.54883 16.586 7.09782 17.3446 7.87555 17.6572V25.1849C7.09782 25.4956 6.54883 26.2562 6.54883 27.1445C6.54883 28.3111 7.49431 29.2566 8.66091 29.2566C9.82752 29.2566 10.773 28.3111 10.773 27.1445C10.773 26.2562 10.224 25.4975 9.44627 25.1849Z" fill="white"/>
<path id="Vector_6" d="M74.655 32.1579C72.9928 32.1579 71.4888 31.8739 70.143 31.3058C68.7972 30.7397 67.6496 29.9676 66.6984 28.9898C65.7492 28.0138 65.0153 26.8796 64.5025 25.5853C63.9878 24.2928 63.7305 22.9337 63.7305 21.5079C63.7305 20.082 63.9802 18.6371 64.4834 17.3313C64.9848 16.0256 65.711 14.878 66.6603 13.8868C67.6096 12.8975 68.7648 12.1121 70.1239 11.5326C71.483 10.9531 73.0061 10.6615 74.6969 10.6615C76.3877 10.6615 77.8955 10.9531 79.2299 11.5326C80.5623 12.114 81.6984 12.8918 82.6344 13.8678C83.5704 14.8437 84.2833 15.9798 84.7713 17.2723C85.2593 18.5666 85.5033 19.9124 85.5033 21.3096C85.5033 21.6527 85.4956 21.9825 85.4842 22.2989C85.4708 22.6154 85.4384 22.8803 85.3851 23.09H69.3519C69.432 23.9078 69.6283 24.6341 69.9466 25.2669C70.2631 25.8998 70.6729 26.4411 71.1742 26.8891C71.6756 27.339 72.2436 27.6802 72.8765 27.9185C73.5094 28.1567 74.1689 28.2749 74.8551 28.2749C75.9112 28.2749 76.9062 28.0176 77.8441 27.5029C78.78 26.9882 79.4205 26.3096 79.7636 25.4652L84.3157 26.7328C83.5494 28.3169 82.3294 29.6169 80.6538 30.6329C78.9783 31.6489 76.9787 32.1579 74.6569 32.1579H74.655ZM80.0381 19.6493C79.9066 18.0919 79.3328 16.8453 78.3168 15.9074C77.3008 14.9714 76.0675 14.5025 74.6169 14.5025C73.9039 14.5025 73.2368 14.6283 72.6172 14.878C71.9977 15.1297 71.4487 15.4785 70.9741 15.9265C70.4994 16.3744 70.1106 16.9158 69.8075 17.5487C69.5044 18.1815 69.3252 18.8811 69.2737 19.6474H80.04L80.0381 19.6493Z" fill="white"/>
<path id="Vector_7" d="M113.756 15.0419H111.064V10.9645H113.756V8.39111C113.756 7.25691 113.947 6.17418 114.33 5.14483C114.713 4.11547 115.266 3.22527 115.992 2.47231C116.718 1.72126 117.601 1.12081 118.644 0.67094C119.686 0.22298 120.88 -0.00195312 122.225 -0.00195312C126.087 -0.00195312 129.713 1.94048 130.182 6.52874H125.927C125.538 5.47841 124.641 4.57105 122.671 4.48718C121.486 4.43762 120.477 4.87986 119.909 5.61757C119.341 6.35718 119.059 7.21497 119.059 8.19096V10.9626H130.182V31.7594H124.877V15.04H119.057V31.7594H113.752V15.04L113.756 15.0419Z" fill="white"/>
<path id="Vector_8" d="M178.35 30.6919C177.637 31.0083 176.76 31.3248 175.717 31.6412C174.674 31.9576 173.586 32.1159 172.452 32.1159C171.712 32.1159 171.02 32.0225 170.374 31.8395C169.728 31.6546 169.16 31.3591 168.672 30.9493C168.184 30.5413 167.795 30.0133 167.503 29.3652C167.213 28.719 167.069 27.9336 167.069 27.0091V15.0934H164.377V11.016H167.069V4.28894H172.374V11.0179H176.767V15.0953H172.374V25.2287C172.374 25.9683 172.572 26.4887 172.966 26.7918C173.363 27.0949 173.837 27.2474 174.392 27.2474C174.947 27.2474 175.486 27.1559 176.014 26.971C176.542 26.7861 176.964 26.6279 177.282 26.4963L178.351 30.6919H178.35Z" fill="white"/>
<path id="Vector_9" d="M103.195 28.1205V40H108.5V11.018H103.868V14.6207C103.102 13.4331 102.113 12.4762 100.898 11.7499C99.6841 11.0237 98.2849 10.6615 96.7028 10.6615C95.3303 10.6615 94.0512 10.9379 92.8637 11.4926C91.6761 12.0473 90.6467 12.806 89.7756 13.7686C88.9044 14.7313 88.2258 15.8597 87.7378 17.1522C87.2499 18.4465 87.0059 19.8437 87.0059 21.3477C87.0059 22.8517 87.2308 24.2566 87.6788 25.5643C88.1267 26.87 88.7539 28.0119 89.5583 28.9878C90.3627 29.9657 91.3196 30.7358 92.429 31.3039C93.5366 31.8719 94.7508 32.156 96.0699 32.156C97.6273 32.156 99.0131 31.8186 100.227 31.1457C101.44 30.4728 102.431 29.4625 103.195 28.1167V28.1205ZM101.018 26.6947C100.174 27.3275 99.1847 27.644 98.0486 27.644C97.2041 27.644 96.4378 27.4857 95.7535 27.1693C95.0672 26.8529 94.4801 26.4183 93.9921 25.8636C93.5041 25.3088 93.121 24.6626 92.8446 23.923C92.5682 23.1853 92.429 22.379 92.429 21.5079C92.429 20.6901 92.5682 19.899 92.8446 19.1327C93.121 18.3683 93.5041 17.6878 93.9921 17.095C94.4801 16.5021 95.0615 16.0332 95.7344 15.6901C96.4073 15.347 97.1526 15.1754 97.9704 15.1754C98.5251 15.1754 99.0779 15.2822 99.6326 15.4918C100.187 15.7034 100.702 16.0008 101.177 16.382C101.651 16.7652 102.067 17.2074 102.423 17.7088C102.78 18.2101 103.037 18.7515 103.195 19.331V24.2395C102.587 25.2421 101.863 26.0599 101.018 26.6947Z" fill="white"/>
<path id="Vector_10" d="M164.463 23.3492C164.16 22.7297 163.672 22.1807 162.999 21.7061C162.326 21.2314 161.468 20.8101 160.425 20.4403C159.383 20.0705 158.123 19.7026 156.645 19.3328C155.061 18.9363 153.959 18.5799 153.34 18.2634C152.72 17.947 152.41 17.4323 152.41 16.7194C152.41 15.9016 152.732 15.3088 153.38 14.9371C154.026 14.5673 154.825 14.3824 155.774 14.3824C156.803 14.3824 157.833 14.5482 158.862 14.878C159.888 15.2078 160.978 15.7377 162.135 16.4735V12.0377C161.519 11.7652 160.885 11.5231 160.229 11.3172C158.765 10.8559 157.293 10.6252 155.816 10.6252C154.628 10.6252 153.527 10.7835 152.511 11.0999C151.495 11.4163 150.61 11.8719 149.859 12.4666C149.106 13.0614 148.519 13.78 148.098 14.6245C147.675 15.4689 147.465 16.4201 147.465 17.4743C147.465 18.2653 147.596 18.9516 147.861 19.533C148.124 20.1144 148.548 20.6291 149.129 21.077C149.709 21.5269 150.475 21.9215 151.424 22.2646C152.373 22.6077 153.523 22.9375 154.869 23.2539C156.636 23.6771 157.898 24.066 158.649 24.4224C159.402 24.7789 159.777 25.326 159.777 26.0656C159.777 26.8052 159.461 27.3713 158.828 27.7678C158.195 28.1643 157.324 28.3607 156.214 28.3607C153.759 28.3607 151.213 27.5029 148.574 25.7873L146.438 29.39C147.044 29.8132 147.743 30.1944 148.536 30.5376C149.327 30.8807 150.158 31.1704 151.03 31.4087C151.901 31.647 152.791 31.83 153.702 31.9634C154.613 32.0949 155.49 32.1616 156.335 32.1616C157.627 32.1616 158.809 32.0092 159.878 31.7061C160.948 31.403 161.851 30.9684 162.591 30.4003C163.328 29.8342 163.902 29.1403 164.312 28.3225C164.722 27.5048 164.926 26.5936 164.926 25.5909C164.926 24.7198 164.773 23.9745 164.47 23.3549L164.463 23.3492Z" fill="white"/>
<path id="Vector_11" d="M146.285 15.61C144.674 15.6367 143.237 15.9474 141.969 16.5403C140.702 17.135 139.792 18.0252 139.238 19.2128V31.7614H134.207V11.018H138.801V15.4518C139.514 14.026 140.444 12.8784 141.592 12.0073C142.739 11.1362 143.946 10.7015 145.214 10.7015C145.503 10.7015 145.721 10.7092 145.867 10.7206C146.012 10.7339 146.149 10.7549 146.283 10.7797V15.6081L146.285 15.61Z" fill="white"/>
<path id="Vector_12" d="M16.7569 27.6478V15.1926C17.6662 14.8685 18.3181 14.0031 18.3181 12.9833C18.3181 11.687 17.2678 10.6367 15.9716 10.6367C14.6753 10.6367 13.625 11.687 13.625 12.9833C13.625 14.0031 14.2769 14.8685 15.1862 15.1926V27.6478C14.2769 27.9718 13.625 28.8373 13.625 29.8571C13.625 31.1533 14.6753 32.2036 15.9716 32.2036C17.2678 32.2036 18.3181 31.1533 18.3181 29.8571C18.3181 28.8373 17.6662 27.9718 16.7569 27.6478Z" fill="white"/>
<path id="Vector_13" d="M48.1852 28.132C42.3293 27.9947 37.1501 26.79 36.0369 21.3191C34.6187 14.35 29.2489 10.6653 20.0762 10.3489C20.6328 11.0828 20.9664 11.9958 20.9664 12.9852C20.9664 13.496 20.8768 13.9897 20.7109 14.453C27.4418 14.8361 31.0617 17.3027 32.0453 22.1312C32.9431 26.5403 35.8482 29.6512 40.446 31.1285C43.1032 31.9825 45.9302 32.1865 48.1871 32.2208V28.132H48.1852Z" fill="white"/>
<path id="Vector_14" d="M62.3219 23.3874C62.0188 22.7679 61.5309 22.2189 60.858 21.7442C60.1851 21.2696 59.3273 20.8483 58.2846 20.4785C57.2419 20.1087 55.9819 19.7408 54.5045 19.371C52.9205 18.9745 51.8187 18.618 51.1992 18.3016C50.5797 17.9852 50.2689 17.4705 50.2689 16.7576C50.2689 15.9398 50.5911 15.347 51.2392 14.9753C51.8854 14.6055 52.6841 14.4206 53.6334 14.4206C54.6628 14.4206 55.6921 14.5864 56.7215 14.9162C57.7432 15.244 58.8278 15.7721 59.9792 16.5021C60.0021 16.4373 60.023 16.3725 60.0478 16.3096C60.5072 15.1125 61.1572 14.0507 61.9941 13.1186C60.7817 12.3828 59.4798 11.7919 58.0882 11.3535C56.6243 10.8922 55.1527 10.6615 53.6753 10.6615C52.4878 10.6615 51.386 10.8197 50.37 11.1361C49.354 11.4526 48.4695 11.9082 47.7184 12.5029C46.9655 13.0976 46.3784 13.8163 45.9571 14.6607C45.5339 15.5052 45.3242 16.4564 45.3242 17.5105C45.3242 18.3016 45.4557 18.9878 45.7207 19.5692C45.9838 20.1506 46.4069 20.6653 46.9864 21.1133C47.5659 21.5631 48.3322 21.9577 49.2815 22.3008C50.2308 22.644 51.3803 22.9737 52.7261 23.2902C54.4931 23.7133 55.755 24.1022 56.5061 24.4587C57.259 24.8151 57.6346 25.3622 57.6346 26.1018C57.6346 26.8414 57.0856 27.4819 56.4108 27.8022C55.5091 28.2311 52.2419 28.2006 50.8389 28.1682V32.2036C57.7661 32.3542 60.1126 31.9272 62.1675 28.3569C62.6231 27.5639 62.7813 26.6279 62.7813 25.6253C62.7813 24.7541 62.6288 24.0088 62.3257 23.3893L62.3219 23.3874Z" fill="white"/>
</g>
<defs>
<clipPath id="clip0_190_23128">
<rect width="177.85" height="40" fill="white" transform="translate(0.5)"/>
</clipPath>
</defs>
</svg>
