<svg width="180" height="40" viewBox="0 0 214 48" fill="none" xmlns="http://www.w3.org/2000/svg">
<g clip-path="url(#clip0_29_68)">
<path d="M38.5705 34.3187C37.4977 33.0034 36.6467 31.5303 36.0291 29.9084C34.1992 32.1296 30.7794 33.8086 24.1298 33.756C24.4066 34.3987 24.5598 35.101 24.5598 35.8284C24.5598 36.8646 24.2556 37.8276 23.7363 38.642C23.9788 38.6465 24.2213 38.6488 24.4592 38.6488C29.0158 38.6488 32.6528 37.9214 35.5213 36.4437C36.8663 35.7506 37.5754 35.3366 38.5728 34.3187" fill="#FBAD18"/>
<path d="M51.0133 17.227C51.1139 16.9296 51.2306 16.6391 51.3701 16.36C51.4502 16.1976 51.5394 16.0421 51.6286 15.8888C52.2599 14.7634 53.0903 13.7912 54.1265 12.9746C54.3095 12.8305 54.4994 12.6932 54.6915 12.5605C49.3595 13.0889 45.0956 14.8686 42.1562 17.7394C43.1627 19.1187 43.9633 20.6673 44.5535 22.3783C45.6469 20.9006 47.1772 19.7455 49.1627 18.8899C49.6614 18.6749 50.1715 18.4919 50.6839 18.3295C50.7708 17.9521 50.8783 17.5861 51.0087 17.2292L51.0133 17.227Z" fill="#FBAD18"/>
<path d="M42.8516 25.7294C42.8516 25.7294 42.8607 25.7157 42.8676 25.7065L42.8516 25.7294Z" fill="#FBAD18"/>
<path d="M2.25315 27.9572C3.49752 27.9572 4.50629 26.9485 4.50629 25.7041C4.50629 24.4597 3.49752 23.4509 2.25315 23.4509C1.00877 23.4509 0 24.4597 0 25.7041C0 26.9485 1.00877 27.9572 2.25315 27.9572Z" fill="#FBAD18"/>
<path d="M10.7347 30.2219V21.1887C11.668 20.8159 12.3268 19.9032 12.3268 18.8372C12.3268 17.4373 11.1922 16.3027 9.79232 16.3027C8.39239 16.3027 7.25781 17.4373 7.25781 18.8372C7.25781 19.9032 7.9166 20.8136 8.84988 21.1887V30.2219C7.9166 30.5948 7.25781 31.5075 7.25781 32.5734C7.25781 33.9733 8.39239 35.1079 9.79232 35.1079C11.1922 35.1079 12.3268 33.9733 12.3268 32.5734C12.3268 31.5075 11.668 30.5971 10.7347 30.2219Z" fill="#FBAD18"/>
<path d="M88.9864 38.5894C86.9917 38.5894 85.1869 38.2485 83.572 37.5669C81.957 36.8875 80.58 35.9611 79.4385 34.7876C78.2994 33.6164 77.4187 32.2554 76.8034 30.7022C76.1858 29.1513 75.877 27.5204 75.877 25.8093C75.877 24.0983 76.1766 22.3644 76.7805 20.7975C77.3821 19.2306 78.2536 17.8536 79.3928 16.6641C80.5319 15.4769 81.9181 14.5345 83.5491 13.8391C85.18 13.1437 87.0077 12.7937 89.0367 12.7937C91.0657 12.7937 92.875 13.1437 94.4763 13.8391C96.0752 14.5367 97.4385 15.47 98.5617 16.6412C99.6848 17.8124 100.54 19.1757 101.126 20.7266C101.711 22.2798 102.004 23.8947 102.004 25.5714C102.004 25.9832 101.995 26.3789 101.981 26.7586C101.965 27.1383 101.927 27.4563 101.862 27.7079H82.6227C82.7187 28.6892 82.9543 29.5608 83.3364 30.3202C83.7161 31.0796 84.2079 31.7293 84.8095 32.2668C85.4111 32.8067 86.0927 33.2161 86.8522 33.5021C87.6116 33.788 88.4031 33.9298 89.2266 33.9298C90.4938 33.9298 91.6879 33.621 92.8133 33.0034C93.9364 32.3858 94.705 31.5714 95.1168 30.5581L100.579 32.0793C99.6596 33.9801 98.1957 35.5402 96.185 36.7594C94.1743 37.9786 91.7748 38.5894 88.9887 38.5894H88.9864ZM95.4462 23.5791C95.2883 21.7102 94.5998 20.2142 93.3806 19.0888C92.1614 17.9656 90.6814 17.4029 88.9406 17.4029C88.0851 17.4029 87.2845 17.5539 86.5411 17.8536C85.7977 18.1555 85.1389 18.5741 84.5693 19.1117C83.9997 19.6492 83.5331 20.2988 83.1694 21.0583C82.8057 21.8177 82.5906 22.6572 82.5289 23.5768H95.4484L95.4462 23.5791Z" fill="#03485E"/>
<path d="M135.908 18.0504H132.678V13.1575H135.908V10.0695C135.908 8.70844 136.136 7.40916 136.596 6.17394C137.056 4.93871 137.719 3.87047 138.591 2.96692C139.462 2.06566 140.521 1.34511 141.773 0.805275C143.024 0.267723 144.456 -0.00219727 146.071 -0.00219727C150.705 -0.00219727 155.056 2.32872 155.619 7.83463H150.513C150.046 6.57424 148.969 5.48541 146.606 5.38476C145.183 5.32529 143.973 5.85598 143.292 6.74123C142.61 7.62876 142.271 8.65812 142.271 9.82929V13.1553H155.619V38.1114H149.253V18.0481H142.269V38.1114H135.903V18.0481L135.908 18.0504Z" fill="#219DBA"/>
<path d="M213.419 36.8303C212.564 37.21 211.512 37.5897 210.26 37.9695C209.009 38.3492 207.703 38.539 206.342 38.539C205.454 38.539 204.624 38.4269 203.849 38.2073C203.073 37.9855 202.392 37.6309 201.806 37.1391C201.22 36.6496 200.754 36.016 200.404 35.2382C200.056 34.4628 199.882 33.5203 199.882 32.4109V18.112H196.652V13.2192H199.882V5.14673H206.248V13.2215H211.521V18.1143H206.248V30.2744C206.248 31.162 206.486 31.7865 206.96 32.1502C207.435 32.5139 208.005 32.6969 208.671 32.6969C209.336 32.6969 209.984 32.5871 210.617 32.3652C211.251 32.1433 211.756 31.9534 212.138 31.7956L213.422 36.8303H213.419Z" fill="#219DBA"/>
<path d="M123.234 33.7445V48H129.6V13.2215H124.041V17.5447C123.122 16.1197 121.935 14.9714 120.478 14.0998C119.021 13.2283 117.342 12.7937 115.443 12.7937C113.796 12.7937 112.261 13.1254 110.836 13.791C109.411 14.4567 108.176 15.3671 107.13 16.5223C106.085 17.6774 105.271 19.0316 104.685 20.5825C104.099 22.1357 103.807 23.8124 103.807 25.6172C103.807 27.422 104.077 29.1078 104.614 30.677C105.152 32.2439 105.904 33.6141 106.87 34.7853C107.835 35.9588 108.983 36.8829 110.314 37.5646C111.643 38.2462 113.101 38.5871 114.683 38.5871C116.552 38.5871 118.215 38.1822 119.672 37.3747C121.127 36.5672 122.317 35.3549 123.234 33.7399V33.7445ZM120.622 32.0335C119.608 32.7929 118.421 33.1727 117.058 33.1727C116.045 33.1727 115.125 32.9828 114.304 32.6031C113.48 32.2234 112.776 31.7018 112.19 31.0362C111.605 30.3705 111.145 29.5951 110.813 28.7075C110.481 27.8223 110.314 26.8547 110.314 25.8093C110.314 24.828 110.481 23.8787 110.813 22.9592C111.145 22.0419 111.605 21.2253 112.19 20.5139C112.776 19.8025 113.473 19.2398 114.281 18.828C115.088 18.4163 115.983 18.2104 116.964 18.2104C117.63 18.2104 118.293 18.3385 118.959 18.5901C119.624 18.844 120.242 19.2009 120.812 19.6584C121.381 20.1181 121.88 20.6488 122.308 21.2504C122.735 21.852 123.044 22.5017 123.234 23.1971V29.0873C122.504 30.2905 121.635 31.2718 120.622 32.0335Z" fill="#03485E"/>
<path d="M196.755 28.019C196.391 27.2756 195.806 26.6168 194.998 26.0472C194.191 25.4777 193.162 24.9721 191.91 24.5284C190.659 24.0846 189.147 23.6431 187.374 23.1993C185.473 22.7236 184.151 22.2958 183.408 21.9161C182.664 21.5364 182.292 20.9188 182.292 20.0632C182.292 19.0819 182.678 18.3705 183.456 17.9245C184.231 17.4807 185.19 17.2588 186.329 17.2588C187.564 17.2588 188.799 17.4578 190.035 17.8536C191.265 18.2493 192.574 18.8852 193.962 19.7682V14.4452C193.223 14.1181 192.462 13.8276 191.675 13.5806C189.918 13.027 188.152 12.7502 186.379 12.7502C184.954 12.7502 183.632 12.9401 182.413 13.3198C181.194 13.6995 180.132 14.2462 179.231 14.9599C178.327 15.6736 177.623 16.536 177.117 17.5493C176.61 18.5627 176.358 19.7041 176.358 20.9691C176.358 21.9184 176.516 22.7419 176.834 23.4395C177.149 24.1372 177.657 24.7548 178.355 25.2924C179.05 25.8322 179.97 26.3057 181.109 26.7175C182.248 27.1292 183.627 27.5249 185.242 27.9046C187.363 28.4125 188.877 28.8791 189.778 29.3069C190.682 29.7346 191.133 30.3911 191.133 31.2786C191.133 32.1662 190.753 32.8456 189.993 33.3213C189.234 33.7971 188.189 34.0327 186.857 34.0327C183.911 34.0327 180.855 33.0034 177.689 30.9447L175.125 35.268C175.852 35.7758 176.692 36.2333 177.643 36.645C178.593 37.0568 179.59 37.4045 180.635 37.6904C181.681 37.9763 182.749 38.1959 183.842 38.356C184.936 38.5139 185.988 38.5939 187.001 38.5939C188.552 38.5939 189.971 38.4109 191.254 38.0472C192.537 37.6835 193.621 37.162 194.509 36.4803C195.394 35.8009 196.083 34.9683 196.574 33.987C197.066 33.0057 197.311 31.9123 197.311 30.7091C197.311 29.6637 197.128 28.7693 196.764 28.0259L196.755 28.019Z" fill="#219DBA"/>
<path d="M174.943 18.732C173.01 18.764 171.285 19.1369 169.764 19.8483C168.243 20.562 167.151 21.6302 166.486 23.0553V38.1136H160.449V13.2215H165.962V18.5421C166.818 16.8311 167.934 15.4541 169.311 14.4087C170.688 13.3633 172.136 12.8418 173.657 12.8418C174.005 12.8418 174.265 12.8509 174.442 12.8647C174.615 12.8807 174.78 12.9058 174.94 12.9356V18.7297L174.943 18.732Z" fill="#219DBA"/>
<path d="M19.5083 33.1772V18.2309C20.5994 17.8421 21.3817 16.8036 21.3817 15.5798C21.3817 14.0243 20.1213 12.7639 18.5659 12.7639C17.0104 12.7639 15.75 14.0243 15.75 15.5798C15.75 16.8036 16.5323 17.8421 17.6234 18.2309V33.1772C16.5323 33.566 15.75 34.6046 15.75 35.8283C15.75 37.3838 17.0104 38.6442 18.5659 38.6442C20.1213 38.6442 21.3817 37.3838 21.3817 35.8283C21.3817 34.6046 20.5994 33.566 19.5083 33.1772Z" fill="#FBAD18"/>
<path d="M57.223 33.7584C50.196 33.5937 43.9809 32.148 42.6451 25.583C40.9432 17.2201 34.4994 12.7984 23.4922 12.4187C24.1601 13.2994 24.5604 14.3951 24.5604 15.5823C24.5604 16.1953 24.4529 16.7877 24.2539 17.3436C32.3309 17.8034 36.6748 20.7633 37.8551 26.5575C38.9325 31.8484 42.4186 35.5815 47.936 37.3543C51.1247 38.3791 54.517 38.6238 57.2253 38.665V33.7584H57.223Z" fill="#FBAD18"/>
<path d="M74.1863 28.0648C73.8226 27.3213 73.237 26.6626 72.4296 26.093C71.6221 25.5234 70.5927 25.0179 69.3415 24.5741C68.0902 24.1303 66.5782 23.6889 64.8055 23.2451C62.9046 22.7693 61.5824 22.3415 60.839 21.9618C60.0956 21.5821 59.7227 20.9645 59.7227 20.109C59.7227 19.1277 60.1093 18.4163 60.887 17.9702C61.6625 17.5264 62.6209 17.3046 63.7601 17.3046C64.9953 17.3046 66.2305 17.5036 67.4658 17.8993C68.6918 18.2927 69.9934 18.9264 71.375 19.8025C71.4025 19.7247 71.4276 19.6469 71.4574 19.5714C72.0087 18.1349 72.7887 16.8608 73.7929 15.7422C72.3381 14.8593 70.7757 14.1502 69.1059 13.624C67.3491 13.0705 65.5832 12.7937 63.8104 12.7937C62.3853 12.7937 61.0632 12.9836 59.844 13.3633C58.6247 13.743 57.5634 14.2897 56.6621 15.0034C55.7586 15.7171 55.054 16.5794 54.5485 17.5928C54.0407 18.6061 53.7891 19.7476 53.7891 21.0125C53.7891 21.9618 53.9469 22.7853 54.2649 23.483C54.5805 24.1807 55.0883 24.7983 55.7837 25.3358C56.4791 25.8757 57.3987 26.3492 58.5378 26.7609C59.677 27.1727 61.0563 27.5684 62.6713 27.9481C64.7917 28.4559 66.306 28.9226 67.2073 29.3503C68.1108 29.7781 68.5615 30.4346 68.5615 31.3221C68.5615 32.2096 67.9027 32.9782 67.0929 33.3625C66.0109 33.8772 62.0902 33.8406 60.4067 33.8017V38.6443C68.7193 38.825 71.5352 38.3126 74.001 34.0282C74.5477 33.0766 74.7376 31.9534 74.7376 30.7502C74.7376 29.7049 74.5546 28.8105 74.1909 28.0671L74.1863 28.0648Z" fill="#03485E"/>
</g>
<defs>
<clipPath id="clip0_29_68">
<rect width="213.42" height="48" fill="white"/>
</clipPath>
</defs>
</svg>
